<?xml version="1.0" encoding="utf-8"?>
<!-- Generator: Adobe Illustrator 16.2.1, SVG Export Plug-In . SVG Version: 6.00 Build 0)  -->
<!DOCTYPE svg PUBLIC "-//W3C//DTD SVG 1.1//EN" "http://www.w3.org/Graphics/SVG/1.1/DTD/svg11.dtd">
<svg version="1.1" id="Layer_1" xmlns="http://www.w3.org/2000/svg" xmlns:xlink="http://www.w3.org/1999/xlink" x="0px" y="0px"
	 width="612px" height="792px" viewBox="0 0 612 792" enable-background="new 0 0 612 792" xml:space="preserve">
<g>
	<g>
		<circle fill="#41B9EB" cx="260.985" cy="373.684" r="6.508"/>
		<g>
			<polygon fill="#41B9EB" points="285.758,419.082 269.801,381.604 251.639,381.604 235.682,419.082 251.428,419.082 
				254.272,419.082 258.055,403.494 256.258,403.494 260.667,387.611 260.772,387.611 265.182,403.494 263.383,403.494 
				267.168,419.082 270.01,419.082 			"/>
		</g>
	</g>
	<g>
		<path fill="#555655" d="M279.881,373.823h3.205l3.403,12.856h-2.701l-0.594-2.719h-3.421l-0.594,2.719h-2.701L279.881,373.823z
			 M280.223,381.836h2.521l-1.242-5.78h-0.036L280.223,381.836z"/>
		<path fill="#555655" d="M287.494,376.992h2.377v1.296h0.036c0.504-0.936,1.207-1.548,2.233-1.548c0.144,0,0.306,0.018,0.45,0.036
			v2.376c-0.252-0.018-0.522-0.036-0.774-0.036c-0.864,0-1.836,0.45-1.836,1.747v5.816h-2.485V376.992z"/>
		<path fill="#555655" d="M293.668,376.992h2.377v1.296h0.036c0.504-0.936,1.207-1.548,2.233-1.548c0.144,0,0.306,0.018,0.45,0.036
			v2.376c-0.252-0.018-0.522-0.036-0.774-0.036c-0.864,0-1.836,0.45-1.836,1.747v5.816h-2.485V376.992z"/>
		<path fill="#555655" d="M303.335,376.74c2.989-0.054,3.817,1.729,3.817,5.096c0,3.313-0.973,5.095-3.817,5.095
			c-2.989,0.054-3.817-1.729-3.817-5.095C299.518,378.523,300.49,376.74,303.335,376.74z M303.335,385.239
			c1.008,0,1.333-0.99,1.333-3.403c0-2.413-0.324-3.403-1.333-3.403c-1.224,0-1.333,1.422-1.333,3.403
			C302.002,383.816,302.111,385.239,303.335,385.239z"/>
		<path fill="#555655" d="M307.96,376.992h2.484l1.135,6.878h0.036l1.206-6.878h2.701l1.278,6.878h0.036l1.17-6.878h2.377
			l-2.089,9.687h-2.827l-1.278-6.878h-0.036l-1.206,6.878h-2.881L307.96,376.992z"/>
		<path fill="#555655" d="M283.408,402.879v-12.855h2.593v12.855H283.408z"/>
		<path fill="#555655" d="M288.034,393.192h2.377v1.134h0.036c0.522-0.954,1.423-1.386,2.467-1.386c1.549,0,2.467,0.846,2.467,2.755
			v7.184h-2.484v-6.68c0-0.972-0.324-1.35-1.062-1.35c-0.846,0-1.314,0.522-1.314,1.603v6.427h-2.485V393.192z"/>
		<path fill="#555655" d="M299.033,399.711v0.324c0,0.846,0.45,1.404,1.296,1.404c0.756,0,1.26-0.379,1.26-1.152
			c0-0.631-0.414-0.919-0.9-1.099l-1.747-0.63c-1.368-0.486-2.07-1.333-2.07-2.701c0-1.603,1.008-2.917,3.565-2.917
			c2.25,0,3.313,1.008,3.313,2.755v0.396h-2.233c0-0.972-0.288-1.458-1.098-1.458c-0.63,0-1.17,0.36-1.17,1.044
			c0,0.468,0.252,0.864,1.081,1.134l1.494,0.505c1.566,0.521,2.143,1.314,2.143,2.771c0,2.035-1.512,3.043-3.601,3.043
			c-2.791,0-3.565-1.224-3.565-3.078v-0.342H299.033z"/>
		<path fill="#555655" d="M305.926,390.419h2.485v2.773h1.44v1.693h-1.44v5.24c0,0.756,0.162,1.062,0.882,1.062
			c0.198,0,0.396-0.019,0.559-0.037v1.729c-0.54,0.055-1.044,0.108-1.62,0.108c-1.945,0-2.305-0.595-2.305-2.557v-5.545h-1.261
			v-1.693h1.261V390.419z"/>
		<path fill="#555655" d="M310.984,389.879h2.484v2.125h-2.484V389.879z M310.984,393.192h2.484v9.687h-2.484V393.192z"/>
		<path fill="#555655" d="M315.935,390.419h2.484v2.773h1.44v1.693h-1.44v5.24c0,0.756,0.162,1.062,0.882,1.062
			c0.198,0,0.396-0.019,0.559-0.037v1.729c-0.54,0.055-1.044,0.108-1.62,0.108c-1.945,0-2.305-0.595-2.305-2.557v-5.545h-1.261
			v-1.693h1.261V390.419z"/>
		<path fill="#555655" d="M325.871,401.745h-0.036c-0.521,0.954-1.422,1.386-2.467,1.386c-1.548,0-2.467-0.846-2.467-2.754v-7.185
			h2.485v6.681c0,0.972,0.324,1.35,1.062,1.35c0.846,0,1.314-0.521,1.314-1.602v-6.429h2.484v9.687h-2.377V401.745z"/>
		<path fill="#555655" d="M330.622,390.419h2.484v2.773h1.44v1.693h-1.44v5.24c0,0.756,0.162,1.062,0.882,1.062
			c0.198,0,0.396-0.019,0.559-0.037v1.729c-0.54,0.055-1.044,0.108-1.62,0.108c-1.945,0-2.305-0.595-2.305-2.557v-5.545h-1.261
			v-1.693h1.261V390.419z"/>
		<path fill="#555655" d="M337.714,398.414v0.774c0,1.134,0.306,2.251,1.225,2.251c0.828,0,1.17-0.631,1.314-1.818h2.232
			c-0.09,2.25-1.17,3.51-3.511,3.51c-3.602,0-3.745-2.771-3.745-5.186c0-2.592,0.504-5.005,3.853-5.005
			c2.899,0,3.547,1.945,3.547,4.915v0.559H337.714z M340.253,396.938c-0.055-1.476-0.234-2.305-1.261-2.305
			c-0.99,0-1.278,1.026-1.278,1.927v0.378H340.253z"/>
		<path fill="#555655" d="M352.097,392.94c2.988-0.054,3.817,1.729,3.817,5.096c0,3.313-0.973,5.095-3.817,5.095
			c-2.989,0.055-3.817-1.729-3.817-5.095C348.279,394.723,349.252,392.94,352.097,392.94z M352.097,401.439
			c1.008,0,1.332-0.99,1.332-3.403s-0.324-3.403-1.332-3.403c-1.225,0-1.333,1.422-1.333,3.403
			C350.764,400.017,350.872,401.439,352.097,401.439z"/>
		<path fill="#555655" d="M357.964,394.885h-1.261v-1.693h1.261v-1.098c0-1.747,0.99-2.323,2.593-2.323
			c0.449,0,0.882,0.018,1.332,0.054v1.764c-0.162-0.018-0.324-0.018-0.486-0.018c-0.702,0-0.954,0.216-0.954,0.774v0.846h1.44v1.693
			h-1.44v7.994h-2.484V394.885z"/>
		<path fill="#555655" d="M290.5,406.223h3.854l1.836,9.075h0.036l1.854-9.075h3.835v12.856h-2.376v-10.263h-0.036l-2.287,10.263
			H295.2l-2.287-10.263h-0.036v10.263H290.5V406.223z"/>
		<path fill="#555655" d="M305.999,414.613v0.775c0,1.134,0.306,2.25,1.225,2.25c0.828,0,1.17-0.631,1.314-1.818h2.232
			c-0.09,2.25-1.17,3.511-3.511,3.511c-3.602,0-3.746-2.772-3.746-5.186c0-2.593,0.504-5.005,3.853-5.005
			c2.899,0,3.547,1.943,3.547,4.915v0.558H305.999z M308.538,413.137c-0.055-1.477-0.234-2.305-1.261-2.305
			c-0.991,0-1.279,1.027-1.279,1.928v0.377H308.538z"/>
		<path fill="#555655" d="M317.357,418.053h-0.036c-0.54,0.9-1.224,1.278-2.196,1.278c-2.035,0-2.971-1.494-2.971-5.095
			c0-3.602,0.936-5.096,2.971-5.096c0.937,0,1.566,0.377,2.089,1.152h0.036v-4.07h2.484v12.856h-2.377V418.053z M315.936,417.422
			c1.098,0,1.314-1.08,1.314-3.186c0-2.107-0.217-3.188-1.314-3.188c-1.081,0-1.297,1.08-1.297,3.188
			C314.639,416.342,314.854,417.422,315.936,417.422z"/>
		<path fill="#555655" d="M321.658,406.079h2.484v2.124h-2.484V406.079z M321.658,409.393h2.484v9.687h-2.484V409.393z"/>
		<path fill="#555655" d="M326.608,406.619h2.484v2.773h1.44v1.691h-1.44v5.24c0,0.756,0.162,1.062,0.883,1.062
			c0.198,0,0.396-0.018,0.558-0.036v1.729c-0.54,0.054-1.044,0.108-1.62,0.108c-1.944,0-2.305-0.595-2.305-2.557v-5.547h-1.261
			v-1.691h1.261V406.619z"/>
		<path fill="#555655" d="M331.558,412.363v-0.234c0-2.232,1.531-2.988,3.403-2.988c2.953,0,3.511,1.225,3.511,2.971v5.096
			c0,0.9,0.055,1.314,0.307,1.872h-2.377c-0.162-0.306-0.234-0.685-0.306-1.009h-0.036c-0.576,1.009-1.278,1.261-2.467,1.261
			c-1.729,0-2.341-1.476-2.341-2.772c0-1.818,0.738-2.557,2.449-3.025l1.404-0.378c0.738-0.198,0.99-0.485,0.99-1.134
			c0-0.738-0.324-1.189-1.152-1.189c-0.757,0-1.152,0.505-1.152,1.262v0.27H331.558z M336.096,414.236
			c-0.343,0.252-0.757,0.414-1.062,0.485c-1.009,0.216-1.404,0.702-1.404,1.566c0,0.738,0.27,1.351,0.937,1.351
			c0.666,0,1.53-0.432,1.53-1.494V414.236z"/>
		<path fill="#555655" d="M340.954,406.619h2.484v2.773h1.44v1.691h-1.44v5.24c0,0.756,0.162,1.062,0.883,1.062
			c0.198,0,0.396-0.018,0.558-0.036v1.729c-0.54,0.054-1.044,0.108-1.62,0.108c-1.944,0-2.305-0.595-2.305-2.557v-5.547h-1.261
			v-1.691h1.261V406.619z"/>
		<path fill="#555655" d="M346.012,406.079h2.484v2.124h-2.484V406.079z M346.012,409.393h2.484v9.687h-2.484V409.393z"/>
		<path fill="#555655" d="M353.914,409.141c2.989-0.055,3.817,1.729,3.817,5.096c0,3.312-0.973,5.095-3.817,5.095
			c-2.988,0.054-3.816-1.729-3.816-5.095C350.098,410.923,351.069,409.141,353.914,409.141z M353.914,417.639
			c1.009,0,1.333-0.99,1.333-3.402c0-2.414-0.324-3.404-1.333-3.404c-1.224,0-1.332,1.423-1.332,3.404
			C352.582,416.217,352.69,417.639,353.914,417.639z"/>
		<path fill="#555655" d="M359.241,409.393h2.377v1.134h0.036c0.521-0.954,1.422-1.386,2.466-1.386c1.549,0,2.467,0.846,2.467,2.754
			v7.185h-2.484v-6.681c0-0.972-0.324-1.35-1.062-1.35c-0.846,0-1.314,0.521-1.314,1.603v6.428h-2.484V409.393z"/>
	</g>
</g>
</svg>
